<?xml version="1.0" encoding="UTF-8"?>
<svg version="1.1" xmlns="http://www.w3.org/2000/svg" width="403" height="264">
<path d="M0 0 C11.97452461 8.93819507 20.16701173 22.94746492 22.61962891 37.67211914 C24.7314134 52.93058276 21.50043743 66.74941865 12.83984375 79.52734375 C5.1594292 89.51332364 -5.0931476 97.10477829 -17.53515625 99.83984375 C-32.39848761 100.74650696 -43.99079436 99.40848464 -56.125 89.98046875 C-63.82483914 83.14171373 -69.64583422 73.11775464 -70.7578125 62.76733398 C-71.58544088 46.97283116 -68.14671099 35.09055669 -57.41015625 23.15234375 C-49.60565442 15.64532293 -39.49672233 12.45450008 -28.93530273 12.38891602 C-19.37597742 12.61893895 -12.42096414 16.75450042 -5.53515625 23.21484375 C-0.3613855 28.79164374 2.6997191 34.18859722 3.46484375 41.83984375 C-0.11866516 40.64534078 -0.69828421 39.54634678 -2.84765625 36.52734375 C-8.51816644 29.08848319 -14.54800317 26.67692357 -23.53515625 24.83984375 C-31.27025308 23.85537688 -39.05231296 26.41471758 -45.390625 30.828125 C-52.3763188 36.80259577 -56.93723401 43.1548771 -57.7734375 52.50390625 C-58.02852333 62.6804884 -55.89060637 69.41151407 -49.28515625 77.21484375 C-42.90482923 83.91050818 -36.13184492 86.92119324 -26.91015625 87.15234375 C-16.67341503 87.00326499 -10.11521872 83.2776783 -2.796875 76.26953125 C5.35192107 67.51555689 9.9064409 57.27369432 9.67578125 45.1640625 C8.58352038 33.12896591 3.68229756 21.91101234 -5.19921875 13.625 C-13.08809007 7.59621372 -23.13820181 3.21071552 -33.2109375 3.52734375 C-46.28963288 5.2858238 -58.89105885 11.83248662 -67.34375 22.01953125 C-76.25802616 34.02025571 -80.81195596 47.81531954 -79.05859375 62.77734375 C-76.76353753 76.20513535 -70.86313209 86.05021715 -61.84765625 96.02734375 C-49.98831435 109.22873589 -45.72351284 126.43413429 -46.41210938 143.87158203 C-47.50373986 161.33333798 -56.36950092 177.10566785 -68.8359375 189.04296875 C-80.41427935 198.972676 -95.55948239 205.72036261 -111.015625 205.12109375 C-125.6507386 203.48740665 -137.28591966 197.25409488 -147.53515625 186.83984375 C-148.12167969 186.25203125 -148.70820313 185.66421875 -149.3125 185.05859375 C-158.4187159 175.23407583 -162.58736741 160.87475637 -162.97265625 147.65234375 C-162.26148214 131.20644245 -155.61013622 117.040709 -143.53515625 105.83984375 C-140.66937851 103.5442467 -137.74246281 101.62292677 -134.53515625 99.83984375 C-133.8390625 99.45054688 -133.14296875 99.06125 -132.42578125 98.66015625 C-126.89717363 95.89585244 -121.58720648 95.14533427 -115.453125 94.625 C-111.73148111 93.62359381 -110.62444466 91.9914822 -108.53515625 88.83984375 C-108.86515625 88.17984375 -109.19515625 87.51984375 -109.53515625 86.83984375 C-124.88668496 85.94846466 -137.60320252 90.36665622 -149.453125 100.28125 C-161.97628678 112.14802537 -170.13243972 126.92757505 -170.84765625 144.27734375 C-170.61509955 158.83897089 -164.59597248 170.49634672 -157.61669922 182.87963867 C-156.53414145 184.84168298 -155.52382565 186.82910015 -154.53515625 188.83984375 C-163.44892157 185.91477396 -167.80732133 176.90742263 -171.84765625 168.96484375 C-179.67494359 152.79169491 -181.661881 134.20367892 -175.78125 116.96875 C-175.37003906 115.93621094 -174.95882812 114.90367187 -174.53515625 113.83984375 C-174.13425781 112.81761719 -173.73335937 111.79539062 -173.3203125 110.7421875 C-169.56878103 102.31483421 -164.00041837 96.24772188 -157.53515625 89.83984375 C-156.69210938 88.94652344 -156.69210938 88.94652344 -155.83203125 88.03515625 C-143.13916609 75.67631386 -124.78183383 72.32825152 -107.85546875 72.5390625 C-104.08003401 72.72748606 -100.93976446 73.05935975 -97.53515625 74.83984375 C-95.671875 77.73828125 -95.671875 77.73828125 -94.22265625 81.21484375 C-93.73152344 82.35695313 -93.24039063 83.4990625 -92.734375 84.67578125 C-90.80096664 89.77695641 -90.80096664 89.77695641 -90.53515625 91.83984375 C-93.91836723 97.86989573 -101.16938423 105.1778395 -107.65917969 107.6484375 C-111.05435456 108.36655591 -114.40383328 108.49987071 -117.86328125 108.61328125 C-125.85537581 109.10641049 -133.26746305 113.9136889 -138.53515625 119.83984375 C-146.34078814 130.79350171 -149.36962085 141.47295714 -148.53515625 154.83984375 C-147.25476103 162.40285621 -143.75597522 168.5255891 -139.53515625 174.83984375 C-138.66890625 176.17015625 -138.66890625 176.17015625 -137.78515625 177.52734375 C-129.82454601 185.70908205 -119.51806377 190.68668754 -108.03515625 191.33984375 C-94.58142694 190.57598732 -82.40973908 183.65535191 -73.3125 174 C-63.02881812 161.50137126 -59.60091503 147.77290305 -60.53515625 131.83984375 C-62.25328192 120.66526259 -66.41860933 112.0344082 -73.84765625 103.58984375 C-88.01494387 87.4851289 -93.53382045 69.49832956 -92.71435547 48.265625 C-91.38238803 30.23506855 -82.09799303 16.65881879 -69.31640625 4.77734375 C-49.26326276 -11.9834926 -21.82490568 -14.81087574 0 0 Z " fill="#FBFBFB" transform="translate(226.53515625,24.16015625)"/>
<path d="M0 0 C0 3 0 3 -1.16101074 4.52850342 C-1.97753113 5.33955536 -1.97753113 5.33955536 -2.81054688 6.16699219 C-3.73281067 7.09375763 -3.73281067 7.09375763 -4.67370605 8.03924561 C-5.34857056 8.70176331 -6.02343506 9.36428101 -6.71875 10.046875 C-7.41005005 10.73630188 -8.1013501 11.42572876 -8.81359863 12.13604736 C-10.28305275 13.59876693 -11.75610598 15.05787818 -13.23242188 16.51367188 C-15.46988807 18.72030305 -17.69681165 20.93712015 -19.921875 23.15625 C-21.3535525 24.5787434 -22.78582627 26.00063698 -24.21875 27.421875 C-25.20675598 28.40350616 -25.20675598 28.40350616 -26.21472168 29.40496826 C-26.85478149 30.03542053 -27.49484131 30.6658728 -28.15429688 31.31542969 C-28.70500854 31.85931335 -29.25572021 32.40319702 -29.82312012 32.96356201 C-31.70890891 34.72768871 -33.63399235 36.40803393 -35.59265137 38.0896759 C-40.74399108 42.58019039 -45.54283678 47.41029673 -50.36328125 52.24975586 C-51.37901159 53.26576888 -52.39496337 54.28156055 -53.41111755 55.29714966 C-56.14627036 58.03201763 -58.87834681 60.76993966 -61.60984802 63.50845408 C-64.47344412 66.37833639 -67.33990599 69.24535354 -70.20605469 72.11268616 C-75.62290142 77.53263076 -81.03719578 82.95511754 -86.45055962 88.37854058 C-92.61792491 94.55711516 -98.78815791 100.73282255 -104.95862389 106.90830028 C-117.64225805 119.60236382 -130.32231751 132.2999926 -143 145 C-139.78525335 148.8014855 -136.56976655 152.55510937 -133.04931641 156.08007812 C-131.97757675 157.15654602 -131.97757675 157.15654602 -130.88418579 158.25476074 C-130.1309201 159.0060022 -129.37765442 159.75724365 -128.6015625 160.53125 C-127.80777191 161.32599731 -127.01398132 162.12074463 -126.19613647 162.9395752 C-124.52488981 164.6114991 -122.85239269 166.2821739 -121.17871094 167.95166016 C-118.63622704 170.48879658 -116.09911344 173.03121461 -113.5625 175.57421875 C-111.93000794 177.2060498 -110.29720561 178.83757052 -108.6640625 180.46875 C-107.91484528 181.21999146 -107.16562805 181.97123291 -106.39370728 182.74523926 C-103.1282014 185.99646456 -99.85057359 189.17108966 -96.34130859 192.15869141 C-89.85975879 197.75168727 -83.91955372 203.93701326 -77.875 209.9921875 C-76.51894474 211.34756829 -75.16274114 212.70280067 -73.80639648 214.05789185 C-70.98079546 216.88202615 -68.15699251 219.70794263 -65.33447266 222.53515625 C-61.70835165 226.16701236 -58.07770793 229.79430908 -54.44573975 233.4203167 C-51.65253479 236.20992086 -48.86170007 239.00188645 -46.07159424 241.79459 C-44.73262011 243.13423276 -43.39289849 244.47312881 -42.0524292 245.81127548 C-40.19008245 247.67109953 -38.3309424 249.53406916 -36.47265625 251.39794922 C-35.91482956 251.95375168 -35.35700287 252.50955414 -34.78227234 253.0821991 C-31 256.88572975 -31 256.88572975 -31 258 C-35.19659114 258.07430396 -39.39321014 258.14688537 -43.58984375 258.21875 C-44.24929049 258.23005259 -44.90873722 258.24135517 -45.58816719 258.25300026 C-53.7701694 258.3922488 -61.95216876 258.51722131 -70.13476562 258.6159668 C-70.90671579 258.62536254 -71.67866596 258.63475828 -72.47400856 258.64443874 C-75.6502937 258.6830078 -78.82657865 258.72152828 -82.0028801 258.75873375 C-91.5780286 258.87231313 -101.14873296 259.03807757 -110.72088337 259.30533409 C-116.6839229 259.47061049 -122.64690447 259.59551741 -128.61146832 259.69092751 C-132.13967469 259.74946429 -135.66438761 259.82964591 -139.19064331 259.96240234 C-163.38972709 260.85201891 -163.38972709 260.85201891 -169.84576416 255.0045166 C-172.13621846 252.47816391 -174.04725135 249.79709611 -176 247 C-177.98993086 245.06917259 -177.98993086 245.06917259 -180.015625 243.48828125 C-183.39863021 240.60293115 -186.54729134 237.51527347 -189.671875 234.35546875 C-190.16675415 233.85508087 -190.6616333 233.35469299 -191.17150879 232.83914185 C-193.22198793 230.76097701 -195.26866276 228.67915053 -197.31103516 226.59301758 C-198.82275466 225.05110173 -200.34063606 223.51546663 -201.859375 221.98046875 C-202.75108398 221.07192139 -203.64279297 220.16337402 -204.56152344 219.22729492 C-206.68731393 217.28560622 -208.36189132 216.08233051 -211 215 C-211.845625 215.85722656 -212.69125 216.71445313 -213.5625 217.59765625 C-214.7081946 218.75274179 -215.85403588 219.90768185 -217 221.0625 C-217.55300781 221.62388672 -218.10601562 222.18527344 -218.67578125 222.76367188 C-221.60310674 225.70782107 -224.56792154 228.49800753 -227.7578125 231.15625 C-231.23068604 234.13817415 -234.16775842 237.44841783 -237.1171875 240.93359375 C-252.96518139 259.27325106 -252.96518139 259.27325106 -263.3515625 260.56640625 C-269.65017779 260.75045946 -275.81299236 260.17474829 -282 259 C-280.70005304 256.13643903 -279.32621927 254.07773819 -277.10202026 251.86151123 C-276.51028015 251.26702179 -275.91854004 250.67253235 -275.30886841 250.06002808 C-274.66150726 249.41985748 -274.01414612 248.77968689 -273.34716797 248.12011719 C-272.66412598 247.43678314 -271.98108398 246.7534491 -271.27734375 246.04940796 C-269.02033362 243.79379024 -266.7563237 241.54533778 -264.4921875 239.296875 C-262.92519314 237.73361108 -261.35864001 236.16990477 -259.79251099 234.60577393 C-255.67051858 230.49141555 -251.54255516 226.3830988 -247.41333008 222.27600098 C-243.20032416 218.08345834 -238.99297842 213.88524412 -234.78515625 209.6875 C-226.5289751 201.45276472 -218.26647643 193.22439935 -210 185 C-205.94298096 188.41690101 -202.00193664 191.87422027 -198.26147461 195.64086914 C-197.40045639 196.50519058 -196.53943817 197.36951202 -195.65232849 198.26002502 C-194.74483353 199.17581833 -193.83733856 200.09161163 -192.90234375 201.03515625 C-191.94052783 202.00138879 -190.97840967 202.96732056 -190.01600647 203.93296814 C-186.98699005 206.97331926 -183.96194838 210.01760559 -180.9375 213.0625 C-177.42510283 216.59861167 -173.9110338 220.13302874 -170.3927021 223.66323662 C-168.99596128 225.06639573 -167.60230675 226.47262487 -166.20872498 227.87892151 C-164.5334637 229.5606334 -162.84654542 231.23085224 -161.14561462 232.88659668 C-159 235 -159 235 -157.50489807 236.7208252 C-155.33832085 239.0112434 -153.41329818 239.94804615 -150.31532288 240.33747864 C-146.86903787 240.40524774 -143.47693606 240.27446278 -140.03515625 240.0859375 C-138.76965439 240.03684235 -137.50415253 239.98774719 -136.20030212 239.93716431 C-132.83618065 239.80166229 -129.4746763 239.64354229 -126.11218262 239.4744873 C-122.74161276 239.3108869 -119.36983364 239.17866076 -115.99804688 239.04296875 C-103.65190868 238.52805881 -91.32654135 237.85805675 -79 237 C-79.46383591 236.53800768 -79.92767181 236.07601536 -80.40556335 235.60002327 C-91.67730092 224.37240245 -102.94353402 213.13929215 -114.20362854 201.8999958 C-119.64899724 196.46495157 -125.09623061 191.03180083 -130.54785156 185.60302734 C-135.29797853 180.8727985 -140.04461144 176.13909647 -144.78703403 171.40114295 C-147.29958435 168.8912061 -149.81388154 166.38307584 -152.33236694 163.87909317 C-155.13976402 161.08773264 -157.93935594 158.28862605 -160.73828125 155.48876953 C-161.57984772 154.65439362 -162.42141418 153.8200177 -163.28848267 152.96035767 C-164.04575653 152.20033447 -164.8030304 151.44031128 -165.58325195 150.65725708 C-166.2469429 149.99540972 -166.91063385 149.33356236 -167.59443665 148.65165901 C-169 147 -169 147 -169 145 C-167.44759659 143.60674046 -165.82970015 142.28619872 -164.1875 141 C-160.16052706 137.78254658 -156.28942988 134.49961778 -152.5 131 C-148.05272888 126.90648909 -143.45282537 123.07557501 -138.75 119.28125 C-135.91900422 116.93281032 -133.20616402 114.49090098 -130.5 112 C-126.0301488 107.88621091 -121.40955107 104.02912703 -116.68359375 100.21484375 C-114.05291443 98.04367173 -111.52057576 95.79758643 -109 93.5 C-105.60401318 90.40444804 -102.13828469 87.44848793 -98.5625 84.5625 C-93.788597 80.70174863 -89.26611572 76.62562925 -84.75 72.46875 C-81.18815771 69.27118704 -77.47434167 66.28611657 -73.75 63.28125 C-70.91900422 60.93281032 -68.20616402 58.49090098 -65.5 56 C-61.05272888 51.90648909 -56.45282537 48.07557501 -51.75 44.28125 C-48.91900422 41.93281032 -46.20616402 39.49090098 -43.5 37 C-39.0301488 32.88621091 -34.40955107 29.02912703 -29.68359375 25.21484375 C-27.05291443 23.04367173 -24.52057576 20.79758643 -22 18.5 C-16.8309735 13.7919058 -11.43398355 9.39650938 -6 5 C-3.99321079 3.34120892 -1.99572671 1.67209535 0 0 Z " fill="#FBFBFB" transform="translate(402,5)"/>
<path d="M0 0 C1.87417672 -0.047656 3.74836239 -0.09496218 5.62255859 -0.1418457 C6.4526091 -0.18341797 7.28265961 -0.22499023 8.13786316 -0.26782227 C14.13618898 -0.37718597 17.39377797 1.30493405 21.72802734 5.40112305 C23.46704102 7.14306641 23.46704102 7.14306641 24.70849609 8.6784668 C27.39513907 11.86969407 30.26484816 14.7906779 33.24560547 17.70703125 C35.77114519 20.17863874 38.24768701 22.69674742 40.72802734 25.21362305 C44.46126996 23.66074897 46.79319259 21.36503464 49.60693359 18.49487305 C50.52796875 17.56288086 51.44900391 16.63088867 52.39794922 15.6706543 C53.36249797 14.68532562 54.32668707 13.69964476 55.29052734 12.71362305 C57.184415 10.783284 59.08241057 8.85718754 60.98193359 6.93237305 C61.82054932 6.07579102 62.65916504 5.21920898 63.52319336 4.33666992 C67.1735698 0.82170219 69.28780741 -0.01081446 74.32373047 0.0378418 C75.35916992 0.06297852 75.35916992 0.06297852 76.41552734 0.08862305 C77.46836914 0.1021582 77.46836914 0.1021582 78.54248047 0.1159668 C80.2711426 0.13948601 81.9996288 0.17535592 83.72802734 0.21362305 C82.28605266 3.50196988 80.49678628 5.71173586 77.984375 8.26367188 C77.2166275 9.04740677 76.44888 9.83114166 75.65786743 10.6386261 C74.82766083 11.4741954 73.99745422 12.30976471 73.14208984 13.1706543 C72.28876068 14.03301193 71.43543152 14.89536957 70.5562439 15.78385925 C68.75166638 17.60293646 66.94427035 19.41922132 65.13427734 21.23291016 C62.35841005 24.02071719 59.60173563 26.82662396 56.84521484 29.63354492 C55.09115791 31.39706068 53.33598695 33.15946925 51.57958984 34.9206543 C50.7534317 35.76634476 49.92727356 36.61203522 49.07608032 37.48335266 C48.3020285 38.25132675 47.52797668 39.01930084 46.73046875 39.81054688 C46.0525528 40.49353348 45.37463684 41.17652008 44.67617798 41.88020325 C42.72802734 43.21362305 42.72802734 43.21362305 40.64663696 43.10652161 C37.25548772 41.52832026 35.22034463 38.36190701 32.89990234 35.51831055 C20.04177802 19.25083942 20.04177802 19.25083942 2.15692139 10.56243896 C-5.19854154 10.05743211 -12.47691216 11.03917034 -19.67529297 12.53222656 C-24.1622298 13.38228363 -28.72788726 13.75921451 -33.27197266 14.21362305 C-16.44197266 31.04362305 0.38802734 47.87362305 17.72802734 65.21362305 C16.02974634 68.61018506 15.41903336 69.76321698 12.74365234 72.02612305 C12.14552734 72.53788086 11.54740234 73.04963867 10.93115234 73.5769043 C10.28662109 74.11702148 9.64208984 74.65713867 8.97802734 75.21362305 C8.30771484 75.78467773 7.63740234 76.35573242 6.94677734 76.9440918 C5.55516645 78.12905371 4.16126106 79.31132599 2.76513672 80.4909668 C-0.2605971 83.04964103 -3.26533679 85.6325683 -6.27197266 88.21362305 C-6.84206055 88.7015332 -7.41214844 89.18944336 -7.99951172 89.69213867 C-12.27199065 93.34878638 -16.52516015 97.02721467 -20.77197266 100.71362305 C-26.16452245 105.39457864 -31.57643701 110.05197969 -37.00244141 114.6940918 C-41.90346585 118.89024981 -46.77899409 123.11532724 -51.65112305 127.3449707 C-56.57135723 131.6135734 -61.51434438 135.85502318 -66.46386719 140.08959961 C-70.75976541 143.76753505 -75.03062934 147.47281093 -79.27197266 151.21362305 C-79.93197266 150.88362305 -80.59197266 150.55362305 -81.27197266 150.21362305 C-53.88197266 122.82362305 -26.49197266 95.43362305 1.72802734 67.21362305 C-2.1790662 62.65534725 -6.03126178 58.31455434 -10.27734375 54.1105957 C-10.843927 53.54547272 -11.41051025 52.98034973 -11.9942627 52.39810181 C-13.21095878 51.18517961 -14.42880749 49.97341269 -15.64771652 48.76271439 C-17.57448898 46.84880079 -19.49803624 44.93169682 -21.42080688 43.01376343 C-25.49338254 38.95255453 -29.56990282 34.89531952 -33.64697266 30.83862305 C-38.39346605 26.11571506 -43.13833733 21.3912007 -47.87904739 16.66248703 C-49.77829433 14.76974278 -51.68051518 12.88002168 -53.58285522 10.99038696 C-54.73637249 9.84049891 -55.88975145 8.69047209 -57.04296875 7.5402832 C-57.8423436 6.74865784 -57.8423436 6.74865784 -58.65786743 5.94104004 C-59.88169019 4.71739726 -61.07994352 3.46825858 -62.27197266 2.21362305 C-62.27197266 1.88362305 -62.27197266 1.55362305 -62.27197266 1.21362305 C-54.68128449 1.06842379 -47.09054141 0.92639144 -39.49975586 0.78637695 C-36.92715164 0.73857275 -34.35455991 0.69009085 -31.78198242 0.64086914 C-25.59727726 0.5227438 -19.41277225 0.41417266 -13.22753906 0.32763672 C-8.81552832 0.26515495 -4.40960761 0.1568027 0 0 Z " fill="#FBFBFB" transform="translate(81.27197265625,-0.213623046875)"/>
<path d="M0 0 C3.47647083 0.31884917 4.10089118 1.10675519 6.62109375 3.7734375 C7.57374625 4.96299743 8.51191177 6.16426219 9.4375 7.375 C9.92395996 8.0033374 10.41041992 8.6316748 10.91162109 9.27905273 C19.71496168 20.97094318 22.25729219 32.5130439 21 47 C18.59919522 59.45236697 11.21918442 69.65394091 1 77 C-8.00639979 82.37176961 -16.69631129 84.09664758 -27 82.0625 C-36.82149364 79.25635896 -44.83238232 72.77088851 -50 64 C-52.01634974 60.22126824 -53 57.37820865 -53 53 C-52.34 53 -51.68 53 -51 53 C-49.44921875 54.828125 -49.44921875 54.828125 -47.6875 57.25 C-42.65278647 63.87298398 -37.67420992 67.39958182 -29.5625 69.6875 C-20.40964797 70.80370147 -12.23439764 69.61281838 -4.625 64.125 C2.5575197 58.2261033 7.22343199 50.14187956 8.23828125 40.80859375 C8.44820424 34.10210656 7.32357832 27.90858368 4 22 C2.68 21.34 1.36 20.68 0 20 C-4.62 24.29 -9.24 28.58 -14 33 C-12.31622777 36.89459074 -12.31622777 36.89459074 -10 39 C-9.51789063 38.566875 -9.03578125 38.13375 -8.5390625 37.6875 C-7.90742188 37.130625 -7.27578125 36.57375 -6.625 36 C-5.99851563 35.443125 -5.37203125 34.88625 -4.7265625 34.3125 C-3 33 -3 33 -1 33 C0.2159517 40.09852885 0.68057912 46.16025153 -3.58984375 52.27734375 C-5.3131393 54.35039908 -6.93235153 56.2685171 -9 58 C-12 58 -12 58 -13.3671875 56.70703125 C-13.86476562 56.08183594 -14.36234375 55.45664063 -14.875 54.8125 C-18.80813499 50.08427966 -23.13254094 45.83277209 -27.55615234 41.56958008 C-28.10094238 41.0361499 -28.64573242 40.50271973 -29.20703125 39.953125 C-29.6966333 39.48036133 -30.18623535 39.00759766 -30.69067383 38.52050781 C-32.17058322 36.80190336 -33.06430553 35.05791899 -34 33 C-19.99093873 18.8138579 -19.99093873 18.8138579 -14.0703125 13.8671875 C-12.29003142 12.2615755 -10.64541973 10.61589124 -8.9921875 8.8828125 C-8.4573877 8.32674316 -7.92258789 7.77067383 -7.37158203 7.19775391 C-6.30677157 6.08292525 -5.25260959 4.95780817 -4.21044922 3.82177734 C-2.734375 2.28125 -2.734375 2.28125 0 0 Z " fill="#FAFAFA" transform="translate(137,124)"/>
<path d="M0 0 C8.34006213 3.55842651 14.20545274 13.08933367 18 21 C25.59335522 39.98851176 26.37346462 58.8307328 18.4921875 77.765625 C14.7925849 85.71546873 10.26494762 91.89991942 4 98 C3.40960938 98.62261719 2.81921875 99.24523437 2.2109375 99.88671875 C-10.566944 112.41129423 -28.13955906 116.20592285 -45.37817383 116.33007812 C-49.89595936 116.2734347 -53.8810166 116.05014454 -58 114 C-59.4609375 111.7578125 -59.4609375 111.7578125 -60.375 109.125 C-60.69210938 108.26132813 -61.00921875 107.39765625 -61.3359375 106.5078125 C-62 104 -62 104 -62 100 C-60.741875 100.33 -59.48375 100.66 -58.1875 101 C-42.28106071 104.11802361 -26.20254019 102.69664275 -12.40234375 93.75 C1.42648117 83.67631941 11.8173201 70.08194801 15 53 C16.75968109 36.28302962 12.56127325 22.73850085 4.0234375 8.49609375 C2.3847808 5.74893399 1.07889355 3.02206205 0 0 Z " fill="#FAFAFA" transform="translate(242,30)"/>
</svg>
